<svg height="491pt" viewBox="0 0 491.99222 491" width="491pt" xmlns="http://www.w3.org/2000/svg" xmlns:xlink="http://www.w3.org/1999/xlink"><linearGradient id="lg1"><stop offset=".322" stop-color="#a163f5"/><stop offset=".466" stop-color="#b074ee"/><stop offset=".752" stop-color="#d8a1dd"/><stop offset=".898" stop-color="#efbad3"/></linearGradient><linearGradient id="linear0" gradientUnits="userSpaceOnUse" x1="246.002085" x2="246.002085" xlink:href="#lg1" y1="477.614885" y2="21.634885"/><linearGradient id="linear1" gradientUnits="userSpaceOnUse" x1="231.782085" x2="231.782085" xlink:href="#lg1" y1="477.614885" y2="21.634885"/><linearGradient id="linear2" gradientUnits="userSpaceOnUse" x1="279.722085" x2="279.722085" xlink:href="#lg1" y1="477.614885" y2="21.634885"/><path d="m459.988281 278.734375c-24.242187-9.988281-52.125-.234375-64.855469 22.691406l-44.359374-18.269531c8.355468-23.878906 8.304687-49.898438-.148438-73.746094l44.277344-18.441406c13.371094 23.921875 43.078125 33.265625 67.734375 21.308594 24.660156-11.960938 35.714843-41.074219 25.210937-66.386719-10.507812-25.3125-38.929687-38.039063-64.808594-29.019531-25.882812 9.019531-40.238281 36.65625-32.738281 63.015625l-44.296875 18.449219c-11.027344-22.753907-29.445312-41.101563-52.246094-52.03125l18.273438-44.371094c25.238281 7.109375 51.804688-5.816406 61.785156-30.0625 10.582032-25.671875-1.015625-55.113282-26.257812-66.679688-25.242188-11.5625-55.109375-1.117187-67.644532 23.660156-12.53125 24.773438-3.25 55.027344 21.023438 68.507813l-18.273438 44.363281c-23.878906-8.355468-49.898437-8.304687-73.742187.148438l-18.453125-44.289063c23.960938-13.421875 33.292969-43.195312 21.285156-67.890625-12.007812-24.695312-41.191406-35.742187-66.542968-25.1875-25.347657 10.558594-38.066407 39.050782-29 64.972656 9.070312 25.917969 36.777343 40.269532 63.179687 32.71875l18.457031 44.296876c-22.757812 11.027343-41.101562 29.445312-52.035156 52.246093l-44.371094-18.273437c5.367188-19.070313-.640625-39.535156-15.464844-52.675782-14.828124-13.144531-35.863281-16.652343-54.152343-9.03125-20.914063 8.703126-33.722657 30.011719-31.597657 52.566407 2.128907 22.550781 18.695313 41.089843 40.867188 45.734375 22.171875 4.640625 44.78125-5.695313 55.777344-25.5l44.359375 18.269531c-8.355469 23.878906-8.300781 49.898437.148437 73.742187l-44.289062 18.453126c-13.390625-23.878907-43.078125-33.171876-67.691406-21.191407-24.613282 11.980469-35.617188 41.074219-25.089844 66.34375s38.933594 37.945313 64.773437 28.90625c25.839844-9.042969 40.144531-36.664062 32.621094-62.984375l44.300781-18.449218c11.023438 22.757812 29.441406 41.101562 52.246094 52.035156l-18.277344 44.371094c-26.722656-7.515626-54.609375 7.421874-63.160156 33.835937-8.546875 26.410156 5.296875 54.855469 31.359375 64.421875 26.058594 9.566406 55.019531-3.164062 65.589844-28.832031 9.949219-24.246094.199219-52.101563-22.699219-64.851563l18.273438-44.363281c23.878906 8.355469 49.898437 8.304687 73.742187-.148437l18.453125 44.289062c-23.878906 13.386719-33.179688 43.074219-21.207031 67.691406 11.976562 24.617188 41.070312 35.625 66.34375 25.105469 25.269531-10.523437 37.953125-38.925781 28.921875-64.769531-9.035156-25.839844-36.652344-40.15625-62.976563-32.640625l-18.457031-44.300781c22.757812-11.023438 41.101562-29.441407 52.035156-52.246094l44.371094 18.277344c-7.519531 26.722656 7.421875 54.617187 33.832031 63.164062 26.414063 8.550781 54.863281-5.292969 64.433594-31.355469 9.566406-26.0625-3.167969-55.027343-28.839844-65.597656zm-35.261719-149.679687c20.230469-8.425782 43.464844 1.140624 51.890626 21.375 8.429687 20.230468-1.140626 43.460937-21.371094 51.890624-20.230469 8.425782-43.464844-1.140624-51.890625-21.375-4.109375-9.707031-4.164063-20.65625-.148438-30.40625 4.015625-9.746093 11.765625-17.484374 21.519531-21.484374zm-135.390624-91.976563c8.347656-20.265625 31.542968-29.929687 51.808593-21.582031 20.261719 8.347656 29.925781 31.539062 21.578125 51.804687-8.34375 20.265625-31.539062 29.929688-51.804687 21.582031-20.265625-8.347656-29.925781-31.539062-21.582031-51.804687zm-160.773438 30.691406c-8.425781-20.230469 1.140625-43.460937 21.375-51.890625 20.230469-8.425781 43.460938 1.140625 51.890625 21.371094 8.425781 20.234375-1.140625 43.464844-21.375 51.894531-9.707031 4.117188-20.660156 4.175781-30.410156.160157-9.753907-4.015626-17.488281-11.773438-21.480469-21.535157zm-61.605469 135.324219c-17.476562 7.28125-37.660156 1.203125-48.210937-14.519531-10.550782-15.71875-8.527344-36.699219 4.832031-50.113281 13.359375-13.414063 34.332031-15.523438 50.097656-5.039063 15.761719 10.484375 21.921875 30.644531 14.714844 48.148437-3.984375 9.75-11.703125 17.5-21.433594 21.523438zm.320313 160.835938c-20.230469 8.425781-43.464844-1.140626-51.890625-21.375-8.429688-20.230469 1.140625-43.460938 21.371093-51.890626 20.230469-8.425781 43.464844 1.140626 51.890626 21.371094 8.40625 20.234375-1.15625 43.449219-21.371094 51.898438zm135.390625 91.976562c-8.335938 20.3125-31.566407 30.015625-51.871094 21.664062-20.304687-8.351562-29.988281-31.589843-21.617187-51.890624 8.367187-20.296876 31.613281-29.960938 51.90625-21.574219 9.777343 3.953125 17.566406 11.65625 21.621093 21.390625 4.054688 9.738281 4.039063 20.691406-.039062 30.414062zm160.773437-30.695312c6.722656 16.136718 2.09375 34.773437-11.398437 45.890624-13.492188 11.117188-32.667969 12.09375-47.21875 2.40625-14.554688-9.6875-21.054688-27.753906-16.003907-44.492187 5.046876-16.734375 20.453126-28.199219 37.9375-28.222656 16.058594-.089844 30.570313 9.570312 36.683594 24.425781zm-117.4375-79.71875c-54.679687 0-99-44.320313-99-99 0-54.675782 44.320313-99 99-99 54.675782 0 99 44.324218 99 99-.0625 54.652343-44.351562 98.941406-99 99zm231-3.859376c-8.378906 20.21875-31.539062 29.839844-51.773437 21.507813-20.238281-8.335937-29.90625-31.476563-21.613281-51.730469 8.375-20.21875 31.535156-29.839844 51.773437-21.503906 20.234375 8.332031 29.902344 31.476562 21.613281 51.726562zm0 0" fill="url(#linear0)"/><path d="m239.882812 200.085938c-.960937-2.878907-4.5625-4.320313-8.160156-4.320313s-7.082031 1.441406-8.039062 4.320313l-23.882813 77.757812c-.097656.351562-.136719.714844-.117187 1.082031 0 3.117188 4.4375 5.277344 7.917968 5.277344 2.160157 0 3.839844-.71875 4.441407-2.640625l4.917969-17.039062h29.640624l4.917969 17.039062c.601563 1.921875 2.28125 2.640625 4.320313 2.640625 3.601562 0 8.042968-2.277344 8.042968-5.277344-.023437-.371093-.105468-.738281-.242187-1.082031zm-20.160156 54.238281 12-41.160157 12 41.160157zm0 0" fill="url(#linear1)"/><path d="m279.722656 196.488281c-3.121094 0-6.359375 1.199219-6.359375 4.078125v79.4375c0 2.761719 3.238281 4.199219 6.359375 4.199219 3.238282 0 6.359375-1.4375 6.359375-4.199219v-79.4375c0-2.878906-3.121093-4.078125-6.359375-4.078125zm0 0" fill="url(#linear2)"/></svg>