<svg id="Capa_1" enable-background="new 0 0 609.649 609.649" height="512" viewBox="0 0 609.649 609.649" width="512" xmlns="http://www.w3.org/2000/svg"><g><g id="Page-1_24_"><g id="_x30_25---AI" transform="translate(-1)"><path id="Shape_69_" d="m200.278 375.168c2.487 1.038 5.285 1.045 7.777.02s4.476-2.999 5.513-5.486l14.327-34.394h54.198l14.327 34.394c2.16 5.18 8.111 7.627 13.29 5.467 5.18-2.16 7.627-8.111 5.467-13.29l-50.804-121.93c-1.578-3.785-5.277-6.251-9.378-6.251s-7.8 2.466-9.378 6.251l-50.804 121.93c-1.038 2.487-1.045 5.285-.02 7.777s2.997 4.475 5.485 5.512zm54.716-104.89 18.625 44.708h-37.25z"/><path id="Path_84_" clip-rule="evenodd" d="m336.281 355.629c-5.612 0-10.161 4.549-10.161 10.161s4.549 10.161 10.161 10.161h60.965c5.612 0 10.161-4.549 10.161-10.161s-4.549-10.161-10.161-10.161h-20.322v-101.608h20.322c5.612 0 10.161-4.549 10.161-10.161s-4.549-10.161-10.161-10.161h-60.965c-5.612 0-10.161 4.549-10.161 10.161s4.549 10.161 10.161 10.161h20.322v101.608z" fill-rule="evenodd"/><path id="Shape_68_" d="m11.134 447.076c0 22.447 18.197 40.643 40.643 40.643 5.091-.019 10.132-1.005 14.855-2.906 24.02 18.391 57.917 27.983 99.576 27.983 6.279 0 12.803-.295 19.417-.721 29.507 60.294 72.081 97.574 120.172 97.574s90.665-37.28 120.182-97.544c6.625.427 13.138.721 19.417.721 41.659 0 75.556-9.592 99.576-27.983 4.722 1.889 9.759 2.865 14.845 2.876 17.939-.051 33.723-11.857 38.839-29.052 5.116-17.194-1.645-35.709-16.638-45.559 1.422-32.718-11.228-69.846-36.975-108.284 25.747-38.428 38.398-75.556 36.975-108.284 17.566-11.336 23.635-34.169 14.016-52.731s-31.774-26.769-51.164-18.954c-27.607-21.124-68.372-30.482-118.882-27.19-29.484-60.344-72.078-97.665-120.19-97.665s-90.706 37.321-120.223 97.666c-50.489-3.272-91.234 6.096-118.882 27.19-19.378-7.752-41.476.467-51.079 18.998s-3.576 41.325 13.931 52.687c-1.402 32.708 11.258 69.835 37.006 108.284-25.748 38.438-38.408 75.566-36.975 108.284-11.492 7.479-18.429 20.256-18.442 33.967zm20.322 0c0-11.223 9.098-20.322 20.322-20.322s20.322 9.098 20.322 20.322-9.098 20.322-20.322 20.322c-5.39 0-10.559-2.141-14.37-5.952s-5.952-8.98-5.952-14.37zm166.729-327.991c27.05 3.239 53.7 9.221 79.539 17.853-18.187 8.117-35.948 17.158-53.212 27.089-17.325 9.999-34.107 20.91-50.276 32.687 5.327-26.622 13.352-52.633 23.949-77.629zm239.165 77.629c-16.164-11.778-32.943-22.69-50.266-32.687-17.239-9.919-34.969-18.96-53.121-27.089 25.813-8.628 52.435-14.609 79.458-17.853 10.591 24.997 18.608 51.007 23.929 77.629zm-23.939 293.851c-27.05-3.239-53.7-9.221-79.539-17.853 18.187-8.117 35.948-17.158 53.212-27.089 17.325-9.999 34.107-20.91 50.276-32.687-5.327 26.622-13.351 52.632-23.949 77.629zm-36.487-308.93c22.914 13.187 44.819 28.052 65.537 44.474 3.737 26.072 5.604 52.378 5.588 78.716.019 26.338-1.845 52.644-5.578 78.716-20.722 16.421-42.631 31.287-65.547 44.474-22.843 13.212-46.614 24.751-71.126 34.526-24.513-9.78-48.284-21.326-71.126-34.547-22.914-13.187-44.819-28.052-65.537-44.474-7.438-52.214-7.438-105.218 0-157.432 20.719-16.414 42.625-31.272 65.537-44.454 22.862-13.222 46.654-24.768 71.187-34.547 24.492 9.784 48.243 21.33 71.065 34.548zm88.399 63.678c20.266 17.941 38.672 37.879 54.94 59.512-16.245 21.629-34.628 41.567-54.868 59.512 1.995-19.774 2.989-39.637 2.977-59.512.006-19.875-.995-39.738-2.997-59.512zm-319.05 119.024c-20.271-17.936-38.678-37.875-54.94-59.512 16.245-21.629 34.627-41.567 54.868-59.512-3.997 39.574-3.997 79.45 0 119.024zm78.299 81.286c17.239 9.919 34.969 18.96 53.121 27.089-25.813 8.628-52.435 14.609-79.458 17.853-10.594-24.997-18.615-51.007-23.939-77.629 16.148 11.777 32.91 22.688 50.215 32.687zm81.226 143.705c-38.164 0-72.843-30.269-98.418-79.366 33.675-4.774 66.695-13.379 98.418-25.646 31.735 12.273 64.769 20.877 98.458 25.646-25.625 49.097-60.294 79.366-98.458 79.366zm254.021-121.93c-11.223 0-20.322-9.098-20.322-20.322s9.098-20.322 20.322-20.322 20.322 9.098 20.322 20.322-9.099 20.322-20.322 20.322zm2.133-60.752c-.721 0-1.402-.213-2.134-.213-22.447 0-40.643 18.197-40.643 40.643.038 9.086 3.15 17.892 8.83 24.985-22.13 14.601-54.432 21.541-93.124 20.088 12.598-31.472 21.527-64.292 26.611-97.808 26.281-21.162 50.065-45.25 70.892-71.796 17.156 24.908 27.363 53.938 29.568 84.101zm18.188-244.073c0 11.223-9.098 20.322-20.322 20.322s-20.322-9.098-20.322-20.322 9.098-20.322 20.322-20.322 20.322 9.099 20.322 20.322zm-52.135-24.985c-5.679 7.093-8.791 15.899-8.83 24.985 0 22.447 18.197 40.643 40.643 40.643.732 0 1.412-.173 2.134-.213-2.203 30.164-12.409 59.195-29.568 84.101-20.831-26.547-44.618-50.635-70.902-71.796-5.091-33.518-14.031-66.338-26.642-97.808 38.724-1.463 71.045 5.446 93.165 20.088zm-222.207-117.266c38.164 0 72.843 30.269 98.418 79.366-33.658 4.778-66.661 13.382-98.367 25.646-31.735-12.273-64.769-20.877-98.458-25.646 25.574-49.097 60.243-79.366 98.407-79.366zm-254.021 121.93c11.223 0 20.322 9.098 20.322 20.322s-9.098 20.322-20.322 20.322-20.322-9.098-20.322-20.322 9.099-20.322 20.322-20.322zm-2.133 60.751c.721 0 1.402.213 2.134.213 22.447 0 40.643-18.197 40.643-40.643-.038-9.086-3.15-17.893-8.83-24.985 22.12-14.601 54.421-21.531 93.124-20.088-12.597 31.472-21.527 64.292-26.611 97.808-26.278 21.161-50.062 45.245-70.892 71.786-17.162-24.901-27.369-53.929-29.568-84.091zm29.568 119.552c20.84 26.539 44.63 50.623 70.912 71.786 5.09 33.521 14.026 66.344 26.632 97.818-38.672 1.463-70.994-5.497-93.124-20.098 5.665-7.098 8.762-15.904 8.789-24.985 0-22.447-18.197-40.643-40.643-40.643-.732 0-1.412.183-2.134.213 2.203-30.161 12.409-59.188 29.568-84.091z"/></g></g></g></svg>