<?xml version="1.0" encoding="UTF-8"?>
<svg xmlns="http://www.w3.org/2000/svg" xmlns:xlink="http://www.w3.org/1999/xlink" viewBox="0 0 512 512" width="512" height="512"><defs><linearGradient id="linear-gradient" x1="416" y1="22.11371" x2="416" y2="515.7777" gradientUnits="userSpaceOnUse"><stop offset="0" stop-color="#2ab793"/><stop offset="1" stop-color="#2c98b5"/></linearGradient><linearGradient id="linear-gradient-2" x1="422.21118" y1="22.11371" x2="422.21118" y2="515.7777" xlink:href="#linear-gradient"/><linearGradient id="linear-gradient-3" x1="256" y1="22.11371" x2="256" y2="515.7777" xlink:href="#linear-gradient"/><linearGradient id="linear-gradient-4" x1="232" y1="22.11371" x2="232" y2="515.7777" xlink:href="#linear-gradient"/></defs><g id="GRADIENT"><path d="M491.88525,361.00684l-72-40a8.00313,8.00313,0,0,0-7.7705,0l-72,40A8.00038,8.00038,0,0,0,336,368v80a8.00038,8.00038,0,0,0,4.11475,6.99316l72,40a7.99973,7.99973,0,0,0,7.7705,0l72-40A8.00038,8.00038,0,0,0,496,448V368A8.00038,8.00038,0,0,0,491.88525,361.00684ZM480,443.293l-64,35.55566L352,443.293V372.707l64-35.55566L480,372.707Z" style="fill:url(#linear-gradient)"/><path d="M380.42236,376.84473l7.15528,14.31054,28.07226-14.03613L448,396.5293V424h16V392a8.00153,8.00153,0,0,0-3.88379-6.86035l-40-24a7.99931,7.99931,0,0,0-7.69385-.29492Z" style="fill:url(#linear-gradient-2)"/><path d="M80,472V72a8.00917,8.00917,0,0,1,8-8H376a8.00917,8.00917,0,0,1,8,8V312h16V72a24.02718,24.02718,0,0,0-24-24H112V40a8.00917,8.00917,0,0,1,8-8H424a8.00917,8.00917,0,0,1,8,8V312h16V40a24.0275,24.0275,0,0,0-24-24H120A24.0275,24.0275,0,0,0,96,40v8H88A24.02718,24.02718,0,0,0,64,72V472a24.02718,24.02718,0,0,0,24,24H360V480H88A8.00917,8.00917,0,0,1,80,472Z" style="fill:url(#linear-gradient-3)"/><path d="M368,179.15527V104a24,24,0,0,0-48,0v75.15527a102.907,102.907,0,0,0,16,55.18433V248H289.88818l-31.76147-15.88062a63.98294,63.98294,0,1,0-75.82031,6.2605l-27.65406,27.6543a39.94864,39.94864,0,0,0-7.49316,46.17285L152,321.88867v26.79785A35.06337,35.06337,0,0,0,157.74316,368,35.06337,35.06337,0,0,0,152,387.31348V448H112V96H296V80H104a8.00008,8.00008,0,0,0-8,8V456a8.00008,8.00008,0,0,0,8,8H320V448H296V387.31348A35.06337,35.06337,0,0,0,290.25684,368,35.06337,35.06337,0,0,0,296,348.68652V328h48a24.0275,24.0275,0,0,0,24-24V288a24.039,24.039,0,0,0-16-22.624V234.3396A102.907,102.907,0,0,0,368,179.15527ZM336,104a8,8,0,0,1,16,0v75.15527a86.98291,86.98291,0,0,1-8,36.51856,86.98291,86.98291,0,0,1-8-36.51856ZM321.37109,280H296V264h40v1.38672A24.10936,24.10936,0,0,0,321.37109,280ZM192,208V192a8.00917,8.00917,0,0,1,8-8h32a8.00917,8.00917,0,0,1,8,8v16a24,24,0,0,1-48,0Zm-24-24a48,48,0,1,1,87.90283,26.64478C255.96045,209.76953,256,208.88965,256,208V192a24.0275,24.0275,0,0,0-24-24H200a24.0275,24.0275,0,0,0-24,24v16c0,.88965.03955,1.76953.09717,2.64478A47.71926,47.71926,0,0,1,168,184Zm-2.03418,93.34863,31.963-31.96338a63.71142,63.71142,0,0,0,16.01551,2.5625q1.02135.052,2.05566.05225,1.03418,0,2.05566-.05225a63.55,63.55,0,0,0,24.48475-5.73339L280,260.94434V280H264a8.00048,8.00048,0,0,0-6.68506-7.8916l-48-8-2.62988,15.7832L248,286.77734V312H164.94434l-3.47461-6.94922A23.96693,23.96693,0,0,1,165.96582,277.34863ZM276.31726,376A19.15215,19.15215,0,0,1,280,387.31348V392H248V376ZM232,392H216V376h16Zm-32,0H168v-4.68652A19.15215,19.15215,0,0,1,171.68274,376H200Zm32,56V432H216v16H168V408H280v40Zm48-99.31348A19.171,19.171,0,0,1,276.34521,360H171.65479A19.171,19.171,0,0,1,168,348.68652V328H280ZM352,304a8.00917,8.00917,0,0,1-8,8H264V296h64a8.00008,8.00008,0,0,0,8-8,8,8,0,0,1,16,0Z" style="fill:url(#linear-gradient-4)"/></g></svg>
