<svg height="512" viewBox="0 0 512 512" width="512" xmlns="http://www.w3.org/2000/svg" xmlns:xlink="http://www.w3.org/1999/xlink"><linearGradient id="linear-gradient" gradientUnits="userSpaceOnUse" x1="112.752" x2="399.248" y1="402.253" y2="115.757"><stop offset="0" stop-color="#41dfd0"/><stop offset="1" stop-color="#ee83ef"/></linearGradient><g id="gradient"><path d="m139.879 367.994c.039 0 .077.006.116.006h116.005a8 8 0 0 0 6.656-12.438l-16-24a8 8 0 1 0 -13.312 8.876l7.708 11.562h-57.369a109.92 109.92 0 0 0 3.036-184h25l13.625 20.438a8 8 0 0 0 13.312-8.876l-16-24a8 8 0 0 0 -6.656-3.562h-65c-.134 0-.265.014-.4.02a110 110 0 1 0 -10.719 215.974zm-108.879-108.989a94 94 0 1 1 94 94 94.106 94.106 0 0 1 -94-94zm175 0a81 81 0 1 0 -81 81 81.092 81.092 0 0 0 81-81zm-146 0a65 65 0 1 1 65 65 65.074 65.074 0 0 1 -65-65zm327.01-110a109.9 109.9 0 0 0 -25.521 3h-105.489a8 8 0 0 0 -6.656 12.438l16 24a8 8 0 0 0 13.312-8.876l-7.708-11.567h54.333a109.92 109.92 0 0 0 3.036 184h-28.036l-13.625-20.438a8 8 0 1 0 -13.312 8.876l16 24a8 8 0 0 0 6.656 3.562h76c.041 0 .08 0 .12-.006a110 110 0 1 0 14.885-218.989zm0 204a94 94 0 1 1 94-94 94.106 94.106 0 0 1 -94.005 94zm0-175a81 81 0 1 0 81 81 81.092 81.092 0 0 0 -81.005-81zm0 146a65 65 0 1 1 65-65 65.074 65.074 0 0 1 -65.005 65zm-265.988-17.584a8.126 8.126 0 0 0 .836.282c.079.022.158.041.237.061q.355.087.722.142c.082.012.163.027.245.037a7.332 7.332 0 0 0 1.9 0c.082-.01.163-.025.244-.037.246-.037.487-.084.725-.143.078-.019.156-.038.234-.06a7.966 7.966 0 0 0 .852-.287l.05-.019a7.874 7.874 0 0 0 .884-.435c.019-.011.04-.018.06-.029l32.989-19.042a8 8 0 0 0 4-6.928v-38.085a8 8 0 0 0 -4-6.928l-32.981-19.042a8 8 0 0 0 -8 0l-32.988 19.041a8 8 0 0 0 -4 6.929v38.085a8 8 0 0 0 4 6.929l32.983 19.042c.022.012.046.021.068.033a8.01 8.01 0 0 0 .872.429zm10.992-21.273v-18.5l16.981-9.8v18.5zm-8-53.075 17.942 10.36-17.942 10.359-17.943-10.359zm-24.983 24.771 16.983 9.805v18.5l-16.983-9.805zm330.969-.482c0-.07 0-.139 0-.209a7.961 7.961 0 0 0 -.038-.94c-.009-.089-.015-.177-.027-.265a8.1 8.1 0 0 0 -.214-1.07c-.02-.07-.046-.138-.067-.209a7.971 7.971 0 0 0 -.324-.873c-.037-.086-.072-.171-.113-.256a7.939 7.939 0 0 0 -.485-.879l-30.987-48a8 8 0 0 0 -13.312-.194l-33.013 48c-.007.01-.012.02-.018.03-.025.037-.045.076-.069.113a7.845 7.845 0 0 0 -.5.882c-.044.089-.087.178-.127.269a8.15 8.15 0 0 0 -.386 1.038c-.008.03-.012.06-.02.09a8.077 8.077 0 0 0 -.2 1.011c-.013.1-.025.192-.035.289a8.035 8.035 0 0 0 -.046 1.108.316.316 0 0 1 0 .032 8.085 8.085 0 0 0 .127 1.081c.018.1.038.2.06.3s.033.193.058.288c.063.247.143.487.229.725.009.027.015.054.026.081a7.989 7.989 0 0 0 .488 1.043c.022.04.035.083.057.123l32 56a8 8 0 0 0 13.893 0l32-56c.019-.033.029-.069.048-.1a7.841 7.841 0 0 0 .481-1.029c.025-.064.042-.129.065-.193.062-.177.127-.353.177-.535.034-.128.055-.257.084-.386.02-.092.042-.183.059-.275a7.994 7.994 0 0 0 .129-1.09zm-39.186-33.938 19.634 30.413-20.438 10.219-20.2-10.1zm-.8 73.451-11.946-20.9 8.368 4.183a8 8 0 0 0 7.156 0l8.367-4.183zm-126.014-175.875a8 8 0 0 1 0 16h-40a8 8 0 0 1 0-16zm40 0a8 8 0 0 1 0 16h-8a8 8 0 0 1 0-16zm-40 264h40a8 8 0 0 1 0 16h-40a8 8 0 0 1 0-16zm-32 0a8 8 0 0 1 0 16h-8a8 8 0 0 1 0-16z" fill="url(#linear-gradient)"/></g></svg>