<svg enable-background="new 0 0 24 24" height="512" viewBox="0 0 24 24" width="512" xmlns="http://www.w3.org/2000/svg"><path d="m19.501 18c-.041 0-.082-.003-.124-.01-.408-.068-.685-.454-.617-.863l.77-4.64c.088-.514-.149-1.031-.591-1.292l-4.348-2.548c-.357-.21-.478-.669-.269-1.026.209-.358.668-.477 1.026-.269l4.351 2.55c.977.577 1.501 1.716 1.31 2.835l-.769 4.636c-.061.367-.379.627-.739.627z"/><path d="m4.499 18c-.36 0-.678-.26-.739-.627l-.77-4.64c-.19-1.115.334-2.254 1.308-2.829l4.392-2.581c.357-.211.817-.091 1.027.267s.091.816-.267 1.026l-4.391 2.58c-.439.26-.677.777-.59 1.287l.771 4.644c.067.409-.209.795-.617.863-.042.007-.083.01-.124.01z"/><path d="m5.25 1.5h-4.5c-.414 0-.75-.336-.75-.75s.336-.75.75-.75h4.5c.414 0 .75.336.75.75s-.336.75-.75.75z"/><path d="m3 4.25c-.414 0-.75-.336-.75-.75v-2.75c0-.414.336-.75.75-.75s.75.336.75.75v2.75c0 .414-.336.75-.75.75z"/><path d="m23.25 1.5h-4.5c-.414 0-.75-.336-.75-.75s.336-.75.75-.75h4.5c.414 0 .75.336.75.75s-.336.75-.75.75z"/><path d="m21 4.25c-.414 0-.75-.336-.75-.75v-2.75c0-.414.336-.75.75-.75s.75.336.75.75v2.75c0 .414-.336.75-.75.75z"/><path d="m19.5 4h-2.241c-.531 0-1.025-.286-1.29-.748-.801-1.389-2.294-2.252-3.969-2.252-1.605 0-3.099.863-3.898 2.252-.265.461-.76.748-1.29.748h-2.242c-.276 0-.5.224-.5.5v2c0 .276.224.5.5.5h2.241c.53 0 1.025.287 1.29.748.8 1.389 2.294 2.252 3.969 2.252 1.604 0 3.098-.863 3.898-2.253.265-.461.76-.747 1.291-.747h2.241c.276 0 .5-.224.5-.5v-2c0-.276-.224-.5-.5-.5z"/><path d="m3.319 2.75h-.5c-.965 0-1.75.785-1.75 1.75v2c0 .965.785 1.75 1.75 1.75h.5c.965 0 1.75-.785 1.75-1.75v-2c0-.965-.785-1.75-1.75-1.75z"/><path d="m21.319 2.75h-.5c-.965 0-1.75.785-1.75 1.75v2c0 .965.785 1.75 1.75 1.75h.5c.965 0 1.75-.785 1.75-1.75v-2c0-.965-.785-1.75-1.75-1.75z"/><path d="m9.944 12.965 5.443 2.788 2.164-1.065-5.347-2.642c-.12-.061-.264-.061-.39 0z"/><path d="m6.462 14.687 5.538 2.745 2.074-1.022.3-.152-5.449-2.788-.3.152z"/><path d="m12.444 18.224.006 5.776 5.305-2.769c.149-.08.245-.238.245-.408v-5.344l-2.248 1.108v1.948c0 .25-.204.457-.45.457s-.45-.207-.45-.457v-1.497l-.3.146z"/><path d="m8.248 16.586v.003l3.297 1.629.012.006-.007 5.776-5.305-2.769c-.149-.08-.245-.238-.245-.408v-5.344z"/></svg>