<svg enable-background="new 0 0 512 512" height="512" viewBox="0 0 512 512" width="512" xmlns="http://www.w3.org/2000/svg" xmlns:xlink="http://www.w3.org/1999/xlink"><linearGradient id="SVGID_1_" gradientUnits="userSpaceOnUse" x1="75.162" x2="436.838" y1="436.856" y2="75.179"><stop offset="0" stop-color="#f803fe"/><stop offset="1" stop-color="#0ecbde"/></linearGradient><g id="_x30_4_Ethereum"><path d="m256 .107c-141.066 0-255.836 114.819-255.836 255.953 0 141.066 114.77 255.833 255.836 255.833s255.836-114.767 255.836-255.833c0-141.134-114.77-255.953-255.836-255.953zm0 501.124c-135.188 0-245.173-109.983-245.173-245.171 0-135.253 109.985-245.291 245.173-245.291s245.173 110.038 245.173 245.291c0 135.188-109.985 245.171-245.173 245.171zm0-447.813c-111.672 0-202.519 90.905-202.519 202.642 0 111.672 90.847 202.522 202.519 202.522s202.525-90.85 202.525-202.522c0-111.737-90.853-202.642-202.525-202.642zm0 394.502c-105.789 0-191.857-86.068-191.857-191.86 0-105.857 86.068-191.98 191.857-191.98 105.794 0 191.862 86.123 191.862 191.98 0 105.792-86.068 191.86-191.862 191.86zm-5.331-410.495v-10.662c0-2.944 2.384-5.331 5.331-5.331s5.331 2.387 5.331 5.331v10.662c0 2.944-2.384 5.331-5.331 5.331s-5.331-2.387-5.331-5.331zm10.662 437.15v10.662c0 2.944-2.384 5.331-5.331 5.331s-5.331-2.387-5.331-5.331v-10.662c0-2.944 2.384-5.331 5.331-5.331s5.331 2.387 5.331 5.331zm-89.436-431.866c-1.01-2.767.416-5.826 3.186-6.833 2.759-1.018 5.826.419 6.83 3.184l3.65 10.019c1.01 2.767-.416 5.826-3.186 6.833-2.714 1.003-5.813-.382-6.83-3.184zm166.826 427.181c1.01 2.767-.417 5.826-3.186 6.833-2.744 1.002-5.819-.403-6.83-3.189l-3.644-10.019c-1.01-2.767.416-5.826 3.186-6.833 2.754-1.013 5.826.422 6.83 3.189zm-235.392-385.256c-1.895-2.254-1.598-5.617.656-7.51 2.27-1.895 5.628-1.593 7.507.659l6.851 8.166c1.895 2.254 1.598 5.617-.656 7.51-2.261 1.896-5.624 1.593-7.507-.659zm302.869 344.361c1.89 2.254 1.593 5.617-.661 7.51-2.27 1.904-5.628 1.583-7.512-.659l-6.851-8.168c-1.89-2.254-1.593-5.617.661-7.51 2.265-1.895 5.623-1.593 7.512.659zm-354.914-288.793c1.479-2.551 4.732-3.428 7.283-1.95l9.231 5.331c2.551 1.471 3.426 4.732 1.952 7.281-1.485 2.567-4.761 3.415-7.283 1.95l-9.231-5.331c-2.551-1.471-3.426-4.732-1.952-7.281zm406.283 234.569c-1.485 2.567-4.761 3.415-7.283 1.95l-9.23-5.331c-2.551-1.471-3.426-4.732-1.952-7.281 1.473-2.556 4.732-3.431 7.283-1.95l9.231 5.331c2.549 1.471 3.424 4.732 1.951 7.281zm-434.23-157.271c.505-2.9 3.264-4.842 6.175-4.324l10.496 1.851c2.9.513 4.837 3.277 4.321 6.177-.51 2.908-3.282 4.83-6.174 4.324l-10.496-1.851c-2.901-.512-4.837-3.277-4.322-6.177zm462.005 81.464c-.453 2.587-2.702 4.407-5.243 4.407-.826 0-.27.006-11.433-1.931-2.9-.51-4.837-3.277-4.321-6.174.51-2.9 3.275-4.847 6.174-4.326l10.501 1.851c2.9.508 4.837 3.276 4.322 6.173zm-440.837-2.968c.515 2.897-1.421 5.664-4.321 6.174-11.039 1.917-10.607 1.931-11.433 1.931-2.541 0-4.79-1.82-5.243-4.407-.515-2.897 1.421-5.664 4.321-6.174l10.501-1.851c2.895-.504 5.665 1.427 6.175 4.327zm420.012-74.062c-.515-2.897 1.421-5.664 4.321-6.174l10.501-1.851c2.879-.502 5.669 1.426 6.174 4.326.515 2.897-1.421 5.664-4.321 6.175l-10.501 1.851c-2.896.506-5.665-1.42-6.174-4.327zm-394.267 144.283c1.473 2.551.599 5.81-1.952 7.283l-9.236 5.331c-2.532 1.462-5.801.611-7.283-1.952-1.473-2.551-.599-5.81 1.952-7.283l9.236-5.331c2.535-1.471 5.804-.599 7.283 1.952zm387.816-223.906c1.473 2.551.599 5.81-1.952 7.283l-9.236 5.331c-2.532 1.462-5.801.611-7.283-1.952-1.473-2.551-.599-5.81 1.952-7.283l9.236-5.331c2.535-1.477 5.805-.602 7.283 1.952zm-339.613 281.085c2.254 1.892 2.551 5.256.661 7.51l-6.851 8.168c-1.884 2.241-5.242 2.563-7.512.659-2.254-1.892-2.551-5.256-.661-7.51l6.851-8.168c1.895-2.252 5.253-2.554 7.512-.659zm274.146-326.707c-2.254-1.892-2.551-5.256-.661-7.51l6.851-8.168c1.9-2.252 5.258-2.554 7.512-.659 2.254 1.892 2.551 5.256.661 7.51l-6.851 8.168c-1.883 2.242-5.241 2.563-7.512.659zm-206.101 370.785-3.644 10.019c-.996 2.745-4.034 4.201-6.83 3.189-2.77-1.007-4.196-4.066-3.186-6.833l3.644-10.019c1.005-2.767 4.05-4.191 6.83-3.189 2.769 1.007 4.196 4.066 3.186 6.833zm139.499-414.431 3.644-10.019c1.005-2.764 4.056-4.196 6.83-3.189 2.77 1.007 4.196 4.066 3.186 6.833l-3.644 10.019c-.996 2.745-4.034 4.201-6.83 3.189-2.77-1.007-4.196-4.066-3.186-6.833zm-7.409 231.029-62.588 38.033-62.588-38.034c-4.908-2.989-10.455 2.916-7.122 7.63l65.358 92.547c2.071 2.954 6.628 2.958 8.705 0l65.358-92.547c3.337-4.72-2.23-10.627-7.123-7.629zm-67.919 47.269v33.043l-40.879-57.882zm10.662 33.044v-33.043l40.879-24.839zm-.755-236.274c-2.087-3.518-7.116-3.43-9.152 0l-72.813 122.074c-1.505 2.515-.692 5.768 1.807 7.286l72.813 44.221c1.682 1.021 3.983.943 5.539 0l72.813-44.221c2.499-1.518 3.311-4.771 1.807-7.286zm-9.907 22.076v137.475l-60.194-36.558zm10.662 137.475v-137.475l60.194 100.917z" fill="url(#SVGID_1_)"/></g></svg>