<svg height="511pt" viewBox="1 -40 511.999 511" width="511pt" xmlns="http://www.w3.org/2000/svg"><path d="m481.269531 54.832031h-176.078125c-.242187 0-.457031-.128906-.558594-.335937l-18.160156-36.835938c-5.125-10.425781-15.945312-17.160156-27.570312-17.160156h-106.445313c-16.945312 0-30.730469 13.789062-30.730469 30.738281v30.128907h-30.140624c-16.941407 0-30.726563 13.785156-30.726563 30.730468v30.128906h-30.128906c-16.945313 0-30.730469 13.785157-30.730469 30.730469v248.671875c0 16.945313 13.785156 30.730469 30.730469 30.730469h328.816406c16.945313 0 30.730469-13.785156 30.730469-30.730469v-30.132812h30.132812c16.945313 0 30.730469-13.785156 30.730469-30.726563v-30.128906h30.128906c16.945313 0 30.730469-13.785156 30.730469-30.730469v-194.339844c0-16.949218-13.785156-30.738281-30.730469-30.738281zm-121.722656 347.410157h-328.816406c-.335938 0-.613281-.273438-.613281-.613282v-248.671875c0-.339843.277343-.613281.613281-.613281h106.453125c.101562 0 .199218.035156.285156.082031.011719.007813.027344.003907.039062.011719.035157.023438.054688.066406.085938.09375.050781.050781.109375.09375.140625.15625l18.167969 36.847656c5.214844 10.570313 15.777344 17.140625 27.5625 17.140625h176.082031c.082031 0 .164063.015625.238281.046875.21875.09375.371094.3125.371094.566406 0 106.203126.003906 193.371094.003906 194.339844 0 .339844-.273437.613282-.613281.613282zm61.476563-61.472657c0 .335938-.273438.609375-.609376.609375h-30.136718v-134.089844c0-16.949218-13.789063-30.734374-30.734375-30.734374h-176.078125c-.226563 0-.445313-.136719-.546875-.34375l-18.171875-36.847657c-5.210938-10.558593-15.769532-17.136719-27.558594-17.136719h-46.210938v-30.128906c0-.339844.273438-.613281.609376-.613281h106.457031c.234375 0 .445312.128906.550781.347656l18.171875 36.847657c5.21875 10.570312 15.777344 17.136718 27.558594 17.136718h176.089843c.335938 0 .609376.273438.609376.613282zm60.859374-60.859375c0 .339844-.273437.613282-.613281.613282h-30.128906v-134.09375c0-16.945313-13.78125-30.730469-30.726563-30.730469h-176.089843c-.230469 0-.445313-.136719-.550781-.347657l-18.167969-36.835937c-5.207031-10.578125-15.769531-17.148437-27.5625-17.148437h-46.199219v-30.128907c0-.34375.273438-.621093.609375-.621093h106.445313c.230468 0 .445312.128906.550781.34375l18.171875 36.859374c5.214844 10.5625 15.777344 17.128907 27.570312 17.128907h176.078125c.335938 0 .609375.277343.609375.625v194.335937zm0 0"/><path d="m267.601562 336.765625c-8.316406 0-15.058593 6.742187-15.058593 15.058594v8.707031c0 8.316406 6.742187 15.058594 15.058593 15.058594 8.316407 0 15.058594-6.742188 15.058594-15.058594v-8.707031c0-8.316407-6.742187-15.058594-15.058594-15.058594zm0 0"/><path d="m311.484375 336.765625c-8.316406 0-15.058594 6.742187-15.058594 15.058594v8.707031c0 8.316406 6.742188 15.058594 15.058594 15.058594s15.058594-6.742188 15.058594-15.058594v-8.707031c0-8.316407-6.742188-15.058594-15.058594-15.058594zm0 0"/></svg>