<svg height="480pt" viewBox="0 0 480 480" width="480pt" xmlns="http://www.w3.org/2000/svg"><path d="m384 88h-288c-4.417969 0-8 3.582031-8 8v288c0 4.417969 3.582031 8 8 8h288c4.417969 0 8-3.582031 8-8v-288c0-4.417969-3.582031-8-8-8zm-40 224c0 4.417969-3.582031 8-8 8h-192c-4.417969 0-8-3.582031-8-8v-144c0-4.417969 3.582031-8 8-8h192c4.417969 0 8 3.582031 8 8zm0 0"/><path d="m232 208h16v24h-16zm0 0"/><path d="m152 304h176v-128h-176zm120-112h16v72c0 4.417969 3.582031 8 8 8s8-3.582031 8-8v-72h16v72c0 13.253906-10.746094 24-24 24s-24-10.746094-24-24zm-56 8c0-4.417969 3.582031-8 8-8h32c4.417969 0 8 3.582031 8 8v40c0 4.417969-3.582031 8-8 8h-24v40h-16zm-56 16c0-13.253906 10.746094-24 24-24h24v16h-24c-4.417969 0-8 3.582031-8 8v48c0 4.417969 3.582031 8 8 8h8v-24h-8v-16h16c4.417969 0 8 3.582031 8 8v48h-24c-13.253906 0-24-10.746094-24-24zm0 0"/><path d="m104 0h16v48h-16zm0 0"/><path d="m168 0h16v48h-16zm0 0"/><path d="m232 0h16v48h-16zm0 0"/><path d="m296 0h16v48h-16zm0 0"/><path d="m360 0h16v48h-16zm0 0"/><path d="m104 432h16v48h-16zm0 0"/><path d="m168 432h16v48h-16zm0 0"/><path d="m232 432h16v48h-16zm0 0"/><path d="m296 432h16v48h-16zm0 0"/><path d="m360 432h16v48h-16zm0 0"/><path d="m432 104h48v16h-48zm0 0"/><path d="m432 168h48v16h-48zm0 0"/><path d="m432 232h48v16h-48zm0 0"/><path d="m432 296h48v16h-48zm0 0"/><path d="m432 360h48v16h-48zm0 0"/><path d="m0 104h48v16h-48zm0 0"/><path d="m0 168h48v16h-48zm0 0"/><path d="m0 232h48v16h-48zm0 0"/><path d="m0 296h48v16h-48zm0 0"/><path d="m0 360h48v16h-48zm0 0"/></svg>