<svg id="Layer_1" enable-background="new 0 0 511.999 511.999" height="512" viewBox="0 0 511.999 511.999" width="512" xmlns="http://www.w3.org/2000/svg"><g><path d="m477.519 0h-443.04c-5.442 0-9.854 4.412-9.854 9.854v492.291c0 5.442 4.412 9.854 9.854 9.854h443.04c5.442 0 9.854-4.412 9.854-9.854v-492.291c.001-5.442-4.411-9.854-9.854-9.854z" fill="#eaae8e"/><path d="m61.712 502.145v-492.291c0-5.442 4.412-9.854 9.854-9.854h-37.087c-5.442 0-9.854 4.412-9.854 9.854v492.291c0 5.442 4.412 9.854 9.854 9.854h37.086c-5.441 0-9.853-4.412-9.853-9.854z" fill="#e39b74"/><path d="m449.71 31.812h-387.421c-3.232 0-5.852 2.62-5.852 5.852v436.672c0 3.232 2.62 5.852 5.852 5.852h387.421c3.232 0 5.852-2.62 5.852-5.852v-436.672c0-3.232-2.62-5.852-5.852-5.852z" fill="#e39b74"/><path d="m93.524 474.336v-436.672c0-3.232 2.62-5.852 5.852-5.852h-37.087c-3.232 0-5.852 2.62-5.852 5.852v436.672c0 3.232 2.62 5.852 5.852 5.852h37.086c-3.231 0-5.851-2.621-5.851-5.852z" fill="#dd8858"/><path d="m420.216 63.624h-328.433c-1.952 0-3.534 1.582-3.534 3.534v377.684c0 1.952 1.582 3.534 3.534 3.534h21.71l4.363-6.993h267.961l11.401 6.993h22.997c1.952 0 3.534-1.582 3.534-3.534v-377.685c.001-1.951-1.581-3.533-3.533-3.533z" fill="#8bcaff"/><g><path d="m131.517 67.157c0-1.952 1.582-3.534 3.534-3.534h-43.268c-1.952 0-3.534 1.582-3.534 3.534v377.684c0 1.952 1.582 3.534 3.534 3.534h21.71l4.363-6.993h13.66v-374.225z" fill="#60b9fe"/></g><path d="m236.896 426.374c-7.221-8.881-18.226-13.821-29.672-13.821h-24.251c-.392 0-.781-.015-1.168-.04l-7.089 3.974-5.924 17.513v10.817l4.152 3.559h72.402c.001-8.893-3.802-16.286-8.45-22.002z" fill="#ffdecf"/><path d="m181.805 412.512-1.38-4.782s-2.747.515-13.736-19.186-5.065-63.443-5.065-63.443l-.784-1.572s-47.347 42.911-47.347 124.846h59.451c0 .001-3.469-19.803 8.861-35.863z" fill="#5895b7"/><path d="m161.624 325.101-.784-1.572s-47.347 42.911-47.347 124.846h29.532c0-34.099 8.202-61.432 17.777-81.734-2.128-19.748.822-41.54.822-41.54z" fill="#477b9e"/><path d="m339.037 304.591-37.328 15.878c-6.214 2.643-13.109-1.917-13.109-8.669v-6.829c-.011.014-35.724 47.901-65.079 36.313-29.36-11.589-9.014-62.771-9.014-62.771l-2.008-3.782-39.555 24.689s-35.91 47.492-5.675 103.686c3.117 5.793 9.125 9.448 15.704 9.448h24.251c11.446 0 22.451 4.941 29.672 13.821 4.648 5.716 8.451 13.11 8.451 22.002h43.253l5.23-5.877s0-2.575 11.589-53.955c11.59-51.379 50.736-55.244 50.736-55.244l3.049-4.588c.001-.001-7.145-12.006-20.167-24.122z" fill="#477b9e"/><g><g><path d="m205.674 407.246c-25.036-46.531-6.139-87.275 2.319-101.578 1.4-14.29 6.514-27.155 6.514-27.155l-2.008-3.782-39.555 24.689s-35.91 47.492-5.675 103.686c3.117 5.793 9.125 9.448 15.704 9.448h24.251c.959 0 1.913.047 2.864.116-1.77-1.492-3.28-3.317-4.414-5.424z" fill="#3f6d8e"/></g></g><path d="m359.205 328.712c-65.548 0-70.605 119.664-70.605 119.664h108.619c0-91.844-38.014-119.664-38.014-119.664z" fill="#5895b7"/><path d="m256.404 100.816c-48.44 0-83.46 38.908-83.46 83.182v115.42c16.643-9.157 39.555-24.689 39.555-24.689l1.531 2.631 4.082-2.631s11.62-5.92 11.62-31.622c0 0-15.484-12.311-15.484-29.824s0-49.191 0-49.191l74.351 8.929v139.808c0 6.752 6.895 11.312 13.109 8.669l41.187-17.519c3.477-1.479 5.734-4.891 5.734-8.669v-102.269c.001 0-4.573-92.225-92.225-92.225z" fill="#5895b7"/><g><path d="m209.773 183.998c0-38.83 26.94-73.526 66.242-81.473-6.027-1.102-12.546-1.709-19.611-1.709-48.44 0-83.46 38.908-83.46 83.182v115.42c13.179-7.251 30.277-18.492 36.829-22.86z" fill="#477b9e"/></g><path d="m284.902 214.915s-17.17 32.365-34.339 32.365c-17.17 0-22.578-5.408-22.578-5.408l-2.449 2.144v7.21c0 9.559-4.927 18.443-13.036 23.504 0 0-26.502 55.554 5.081 68.987 23.698 10.08 52.121-12.895 71.02-32.814v-67.229-32.82z" fill="#ffdecf"/><path d="m248.626 266.484c4.807-5.082 7.578-11.871 7.578-19.041v-1.271c-1.866.697-3.753 1.107-5.642 1.107-17.17 0-22.578-5.408-22.578-5.408l-2.449 2.144v7.21c0 9.559-4.927 18.443-13.036 23.504 0 0-26.502 55.554 5.081 68.987 10.483 4.459 21.89 2.443 32.989-2.908-.778-.259-1.551-.547-2.32-.874-22.424-9.538-15.568-40.308-9.705-57.353 2.086-6.062 5.676-11.439 10.082-16.097z" fill="#ffcebe"/><path d="m244.774 129.196c-20.205 0-36.585 16.379-36.585 36.585v41.95c0 8.122 1.899 16.182 5.867 23.269 5.391 9.63 15.532 19.766 34.339 19.766.272 0 .543-.001.813-.003 21.842-.202 39.393-18.07 39.393-39.913v-37.827c-.001-24.206-19.622-43.827-43.827-43.827z" fill="#ffeee5"/><path d="m247.708 230.999c-3.968-7.087-5.867-15.146-5.867-23.269v-41.95c0-14.453 8.383-26.945 20.55-32.888-5.393-2.371-11.349-3.697-17.618-3.697-20.205 0-36.585 16.379-36.585 36.585v41.95c0 8.123 1.899 16.182 5.867 23.269 5.391 9.63 15.532 19.766 34.339 19.766.273 0 .543-.001.813-.003 5.612-.052 10.936-1.277 15.756-3.429-8.388-3.786-13.8-10.162-17.255-16.334z" fill="#ffdecf"/></g></svg>