<svg height="512pt" viewBox="0 0 512 512" width="512pt" xmlns="http://www.w3.org/2000/svg" xmlns:xlink="http://www.w3.org/1999/xlink"><linearGradient id="a" gradientUnits="userSpaceOnUse" x1="74.9807" x2="437.0193" y1="74.9807" y2="437.0193"><stop offset="0" stop-color="#ececf1"/><stop offset="1" stop-color="#e2e2e7"/></linearGradient><linearGradient id="b" gradientUnits="userSpaceOnUse" x1="193.9208" x2="318.0792" y1="315.3752" y2="439.5337"><stop offset="0" stop-color="#444"/><stop offset="1" stop-color="#292929"/></linearGradient><linearGradient id="c"><stop offset="0" stop-color="#8a8a8a"/><stop offset="1" stop-color="#5a5a5a"/></linearGradient><linearGradient id="d" gradientUnits="userSpaceOnUse" x1="243.2977" x2="268.7023" xlink:href="#c" y1="86.527" y2="111.9316"/><linearGradient id="e" gradientUnits="userSpaceOnUse" x1="144.1026" x2="362.048" y1="66.0527" y2="283.9981"><stop offset="0" stop-color="#98caf0"/><stop offset="1" stop-color="#5aaae7"/></linearGradient><linearGradient id="f" gradientUnits="userSpaceOnUse" x1="173.4346" x2="345.7519" y1="184.1342" y2="356.4516"><stop offset="0" stop-color="#a8d32a"/><stop offset="1" stop-color="#81a713"/></linearGradient><linearGradient id="g" gradientUnits="userSpaceOnUse" x1="155.7184" x2="195.8311" xlink:href="#c" y1="396.0627" y2="436.1754"/><linearGradient id="h" gradientUnits="userSpaceOnUse" x1="316.1689" x2="356.2816" xlink:href="#c" y1="396.0627" y2="436.1754"/><linearGradient id="i" gradientUnits="userSpaceOnUse" x1="235.9437" x2="276.0563" xlink:href="#c" y1="396.0627" y2="436.1754"/><linearGradient id="j" gradientUnits="userSpaceOnUse" x1="294.9056" x2="337.4323" y1="133.4551" y2="175.9818"><stop offset="0" stop-color="#ffdc2e"/><stop offset="1" stop-color="#fdbf00"/></linearGradient><path d="m512 256c0 141.386719-114.613281 256-256 256s-256-114.613281-256-256 114.613281-256 256-256 256 114.613281 256 256zm0 0" fill="url(#a)"/><path d="m327.011719 420.066406 18.429687-7.894531-51.570312-121.007813-18.433594 7.894532 19.6875 46.195312h-29.097656v-50.140625h-20.054688v50.140625h-29.097656l19.6875-46.195312-18.433594-7.894532-51.570312 121.007813 18.429687 7.894531 23.335938-54.757812h37.648437v50.808594h20.054688v-50.808594h37.648437zm0 0" fill="url(#b)"/><path d="m245.972656 83.851562h20.054688v30.753907h-20.054688zm0 0" fill="url(#d)"/><path d="m407.089844 104.578125v134.375l-151.089844 6.621094-150.421875 6.417969v-147.414063zm0 0" fill="url(#e)"/><path d="m407.089844 238.953125v56.160156h-301.511719v-43.121093l110.710937-68.996094 39.710938 27.078125 45.128906 30.6875 55.152344-37.910157zm0 0" fill="url(#f)"/><path d="m145.691406 406.089844h60.167969v20.058594h-60.167969zm0 0" fill="url(#g)"/><path d="m306.140625 406.089844h60.167969v20.058594h-60.167969zm0 0" fill="url(#h)"/><path d="m225.914062 406.089844h60.171876v20.058594h-60.171876zm0 0" fill="url(#i)"/><path d="m316.167969 184.804688c-16.589844 0-30.082031-13.496094-30.082031-30.085938s13.492187-30.082031 30.082031-30.082031c16.589843 0 30.085937 13.492187 30.085937 30.082031s-13.496094 30.085938-30.085937 30.085938zm0 0" fill="url(#j)"/><path d="m84.851562 285.085938h342.296876v20.054687h-342.296876zm0 0" fill="#6e6e6e"/></svg>