<svg height="512" viewBox="0 0 128 128" width="512" xmlns="http://www.w3.org/2000/svg" xmlns:xlink="http://www.w3.org/1999/xlink"><linearGradient id="a" gradientUnits="userSpaceOnUse" x1="98.049" x2="20.551" y1="107.449" y2="29.951"><stop offset="0" stop-color="#d261e8"/><stop offset="1" stop-color="#19cffc"/></linearGradient><path d="m118.786 23.735v-.008a1.719 1.719 0 0 0 -.15-.423c-.017-.035-.035-.068-.055-.1a1.726 1.726 0 0 0 -.273-.37l-22.321-22.321a1.716 1.716 0 0 0 -.371-.275c-.033-.019-.065-.036-.1-.053a1.722 1.722 0 0 0 -.425-.151 1.75 1.75 0 0 0 -.341-.034h-41.043a7.759 7.759 0 0 0 -7.75 7.75v10.638h-10.638a7.759 7.759 0 0 0 -7.75 7.75v10.638h-10.638a7.759 7.759 0 0 0 -7.75 7.75v63.333a1.75 1.75 0 0 0 3.5 0v-63.333a4.255 4.255 0 0 1 4.25-4.25h10.638v67.586a1.75 1.75 0 0 0 1.75 1.75h49.224v10.638a4.255 4.255 0 0 1 -4.25 4.25h-57.362a4.255 4.255 0 0 1 -4.25-4.25 1.75 1.75 0 0 0 -3.5 0 7.759 7.759 0 0 0 7.75 7.75h57.362a7.759 7.759 0 0 0 7.75-7.75v-10.638h10.638a7.759 7.759 0 0 0 7.75-7.75v-10.638h10.638a7.759 7.759 0 0 0 7.75-7.75v-59.4a1.689 1.689 0 0 0 -.033-.339zm-22.286-17.76 8.172 8.172 8.172 8.172h-16.344zm14.569 81.749h-61.612v-7.411a1.75 1.75 0 0 0 -3.5 0v9.161a1.75 1.75 0 0 0 1.75 1.75h49.224v10.638a4.255 4.255 0 0 1 -4.25 4.25h-61.612v-79.974a4.255 4.255 0 0 1 4.25-4.25h10.638v23.724a1.75 1.75 0 0 0 3.5 0v-37.862a4.255 4.255 0 0 1 4.25-4.25h39.293v20.569a1.749 1.749 0 0 0 1.75 1.75h20.569v57.655a4.255 4.255 0 0 1 -4.25 4.25zm-61.612-27.161v4.8a1.75 1.75 0 0 1 -3.5 0v-4.8a1.75 1.75 0 0 1 3.5 0z" fill="url(#a)"/></svg>