<svg id="Capa_1" enable-background="new 0 0 512 512" height="512" viewBox="0 0 512 512" width="512" xmlns="http://www.w3.org/2000/svg"><g><circle cx="256" cy="55" r="55"/><path d="m157.093 414.961c-15.525 16.62-37.609 27.039-62.093 27.039s-46.568-10.419-62.093-27.039c-19.846 13.507-32.907 36.275-32.907 62.039v20c0 8.284 6.716 15 15 15h160c8.284 0 15-6.716 15-15v-20c0-25.764-13.061-48.532-32.907-62.039z"/><path d="m479.093 414.961c-15.525 16.62-37.609 27.039-62.093 27.039s-46.568-10.419-62.093-27.039c-19.846 13.507-32.907 36.275-32.907 62.039v20c0 8.284 6.716 15 15 15h160c8.284 0 15-6.716 15-15v-20c0-25.764-13.061-48.532-32.907-62.039z"/><path d="m362.722 365.85c4.246 26.133 26.964 46.15 54.278 46.15 30.327 0 55-24.673 55-55s-24.673-55-55-55c-22.726 0-42.277 13.856-50.649 33.564l-65.395-20.309c-.721-18.796-13.02-34.668-29.956-40.675v-64.58h65c8.284 0 15-6.716 15-15v-20c0-25.764-13.061-48.532-32.907-62.039-15.525 16.62-37.609 27.039-62.093 27.039s-46.568-10.419-62.093-27.039c-19.846 13.507-32.907 36.275-32.907 62.039v20c0 8.284 6.716 15 15 15h65v64.58c-16.936 6.007-29.234 21.878-29.956 40.675l-65.395 20.309c-8.372-19.708-27.923-33.564-50.649-33.564-30.327 0-55 24.673-55 55s24.673 55 55 55c27.314 0 50.032-20.017 54.278-46.15l70.67-21.947c8.213 10.978 21.317 18.097 36.052 18.097s27.839-7.119 36.052-18.098z"/></g></svg>