<svg id="Capa_1" enable-background="new 0 0 511.995 511.995" height="512" viewBox="0 0 511.995 511.995" width="512" xmlns="http://www.w3.org/2000/svg"><g><path d="m510.202 195.593-20.436-35.397c-1.691-2.927-4.417-5.064-7.557-6.066v-65.814c4.978-5.712 8.003-13.168 8.003-21.322 0-17.92-14.579-32.5-32.5-32.5-8.15 0-15.603 3.022-21.313 7.996h-106.283c-5.917-5.167-13.408-7.996-21.337-7.996-8.682 0-16.843 3.38-22.981 9.519-5.763 5.764-8.896 13.172-9.417 20.728l-75.048 75.048c-17.203.813-30.948 15.061-30.948 32.461 0 8.149 3.022 15.602 7.995 21.312v42.337c0 4.142 3.357 7.5 7.5 7.5s7.5-3.358 7.5-7.5v-32.569c3.008.922 6.199 1.421 9.505 1.421 3.302 0 6.49-.499 9.495-1.418v89.247c-3.091-.642-6.269-.979-9.5-.979-3.256 0-6.432.342-9.5.985v-21.685c0-4.142-3.357-7.5-7.5-7.5s-7.5 3.358-7.5 7.5v27.747c-13.055 8.187-21.76 22.699-21.76 39.213v11.11h-92.35c-17.164 0-33.306 6.682-45.455 18.819-12.133 12.143-18.815 28.281-18.815 45.44 0 35.438 28.831 64.27 64.27 64.27h192.79c4.143 0 7.5-3.358 7.5-7.5s-3.357-7.5-7.5-7.5h-192.79c-27.167 0-49.27-22.102-49.27-49.27 0-13.155 5.123-25.528 14.421-34.833 9.312-9.303 21.688-14.426 34.849-14.426h277.23c27.167 0 49.27 22.098 49.27 49.26 0 13.167-5.125 25.538-14.436 34.84-9.296 9.305-21.667 14.43-34.834 14.43h-49.44c-4.143 0-7.5 3.358-7.5 7.5s3.357 7.5 7.5 7.5h49.44c17.177 0 33.316-6.687 45.44-18.824 12.142-12.13 18.829-28.27 18.829-45.446 0-35.433-28.831-64.26-64.27-64.26h-92.35v-11.11c0-12.353-4.814-23.97-13.557-32.713-2.514-2.514-5.273-4.691-8.214-6.534v-105.039c4.376-5.02 7.237-11.388 7.866-18.393l75.771-75.771c7.099-.48 13.75-3.236 19.109-7.919h103.086v62.641c-3.139 1.004-5.862 3.141-7.552 6.067l-20.436 35.396c-2.389 4.138-2.389 9.278 0 13.416l22.144 38.354c1.39 2.406 3.91 3.751 6.502 3.751 1.272 0 2.562-.324 3.743-1.006 3.587-2.071 4.816-6.658 2.745-10.245l-21.687-37.562 19.521-33.812h39.043l19.521 33.812-21.686 37.562c-2.071 3.587-.842 8.174 2.745 10.245s8.175.842 10.245-2.745l22.142-38.352c2.393-4.141 2.393-9.283.002-13.421zm-276.052 153.377h-62.53v-11.11c0-17.237 14.023-31.26 31.26-31.26 8.354 0 16.204 3.251 22.106 9.153 5.909 5.91 9.164 13.761 9.164 22.107zm105.698-291.48h86.786c-.922 3.008-1.421 6.199-1.421 9.504 0 3.303.499 6.49 1.418 9.496h-86.78c1.878-6.183 1.877-12.817-.003-19zm117.865 42.005c3.303 0 6.491-.499 9.497-1.419v55.414h-19v-55.416c3.007.922 6.198 1.421 9.503 1.421zm0-50c9.649 0 17.5 7.851 17.5 17.5s-7.851 17.5-17.5 17.5-17.5-7.851-17.5-17.5 7.85-17.5 17.5-17.5zm-239.162 94.292 61.533-61.534c1.475 2.777 3.377 5.386 5.714 7.722 2.311 2.311 4.909 4.23 7.714 5.726l-61.721 61.721c-2.963-5.751-7.587-10.511-13.24-13.635zm-33.166 28.464c0-9.649 7.851-17.5 17.5-17.5s17.5 7.851 17.5 17.5-7.851 17.5-17.5 17.5-17.5-7.851-17.5-17.5zm123.394-87.757c-4.675 0-9.069-1.82-12.374-5.125-6.823-6.823-6.823-17.925 0-24.749 3.305-3.305 7.699-5.125 12.374-5.125 4.674 0 9.069 1.82 12.374 5.125 6.823 6.823 6.823 17.925 0 24.749h.001c-3.305 3.305-7.701 5.125-12.375 5.125z"/><path d="m380.77 413.235c0-21.651-17.614-39.265-39.265-39.265h-277.24c-21.651 0-39.265 17.614-39.265 39.265s17.614 39.265 39.265 39.265h277.24c21.65 0 39.265-17.614 39.265-39.265zm-202.15 0c0-13.38 10.885-24.265 24.265-24.265s24.265 10.885 24.265 24.265-10.885 24.265-24.265 24.265-24.265-10.885-24.265-24.265zm-6.57 24.265h-76.949c5.272-6.685 8.43-15.111 8.43-24.265s-3.158-17.58-8.43-24.265h76.949c-5.272 6.685-8.43 15.111-8.43 24.265s3.158 17.58 8.43 24.265zm61.67-48.53h76.949c-5.272 6.685-8.43 15.111-8.43 24.265s3.158 17.58 8.43 24.265h-76.949c5.272-6.685 8.43-15.111 8.43-24.265s-3.158-17.58-8.43-24.265zm132.05 24.265c0 13.38-10.885 24.265-24.265 24.265s-24.266-10.885-24.266-24.265 10.886-24.265 24.266-24.265 24.265 10.885 24.265 24.265zm-325.77 0c0-13.38 10.885-24.265 24.265-24.265s24.266 10.885 24.266 24.265-10.886 24.265-24.266 24.265-24.265-10.885-24.265-24.265z"/><circle cx="341.505" cy="413.235" r="7.505"/><circle cx="202.885" cy="413.235" r="7.505"/><circle cx="64.265" cy="413.235" r="7.505"/></g></svg>