<svg id="Capa_1" enable-background="new 0 0 512 512" height="512" viewBox="0 0 512 512" width="512" xmlns="http://www.w3.org/2000/svg"><g><path d="m226 392h35.729l-19.146 38.292c-3.705 7.41-.701 16.42 6.708 20.125 7.423 3.712 16.427.687 20.125-6.708l30-60c2.325-4.65 2.076-10.172-.657-14.594-2.732-4.423-7.56-7.115-12.759-7.115h-36.078l19.581-40.467c3.608-7.457.488-16.427-6.969-20.036-7.457-3.608-16.427-.488-20.036 6.969l-30 62c-2.249 4.648-1.949 10.127.794 14.502 2.743 4.376 7.544 7.032 12.708 7.032z"/><path d="m256 60c-24.813 0-45 20.187-45 45s20.187 45 45 45 45-20.187 45-45-20.187-45-45-45zm0 60c-8.271 0-15-6.729-15-15s6.729-15 15-15 15 6.729 15 15-6.729 15-15 15z"/><path d="m30 346v48.58c-6.146 2.162-11.914 5.694-16.82 10.601-17.545 17.545-17.545 46.094 0 63.639 5.858 5.858 15.355 5.858 21.213 0s5.858-15.355 0-21.213c-5.849-5.849-5.849-15.365 0-21.213 5.849-5.849 15.365-5.848 21.213 0 5.849 5.849 5.849 15.365 0 21.213-5.857 5.858-5.857 15.355 0 21.213s15.355 5.858 21.213 0c17.545-17.545 17.545-46.094 0-63.639-4.906-4.906-10.674-8.438-16.82-10.601v-44.604l30.141-52.869c4.937 1.864 10.28 2.893 15.86 2.893 5.258 0 10.305-.915 15-2.58v79.58c0 74.439 60.561 135 135 135s135-60.561 135-135v-79.58c4.695 1.665 9.742 2.58 15 2.58 5.58 0 10.923-1.029 15.859-2.894l30.141 52.87v44.604c-6.146 2.162-11.914 5.694-16.82 10.601-17.545 17.545-17.545 46.094 0 63.639 5.858 5.858 15.355 5.858 21.213 0s5.858-15.355 0-21.213c-5.849-5.849-5.849-15.365 0-21.213 5.849-5.849 15.365-5.848 21.213 0 5.849 5.849 5.849 15.365 0 21.213-5.857 5.858-5.857 15.355 0 21.213s15.355 5.858 21.213 0c17.545-17.545 17.545-46.094 0-63.639-4.906-4.906-10.674-8.438-16.82-10.601v-48.58c0-2.605-.679-5.166-1.969-7.429l-34.951-61.305c3.76-6.571 5.921-14.169 5.921-22.266 0-24.813-20.187-45-45-45-19.555 0-36.228 12.541-42.42 30h-32.58v-30h15c24.813 0 45-20.187 45-45v-30c0-74.439-60.561-135-135-135s-135 60.561-135 135v30c0 24.813 20.187 45 45 45h15v30h-32.58c-6.192-17.459-22.865-30-42.42-30-24.813 0-45 20.187-45 45 0 8.097 2.161 15.695 5.919 22.266l-34.951 61.305c-1.289 2.263-1.968 4.824-1.968 7.429zm376-106c8.271 0 15 6.729 15 15s-6.729 15-15 15-15-6.729-15-15 6.729-15 15-15zm-240-60c-8.271 0-15-6.729-15-15v-30c0-57.897 47.103-105 105-105s105 47.103 105 105v30c0 8.271-6.729 15-15 15-39.173 0-140.543 0-180 0zm135 30v30h-90v-30zm-150 60h210v107c0 57.897-47.103 105-105 105s-105-47.103-105-105zm-45-30c8.271 0 15 6.729 15 15s-6.729 15-15 15-15-6.729-15-15 6.729-15 15-15z"/></g></svg>