<svg id="Gradient" height="512" viewBox="0 0 512 512" width="512" xmlns="http://www.w3.org/2000/svg" xmlns:xlink="http://www.w3.org/1999/xlink"><linearGradient id="linear-gradient" gradientUnits="userSpaceOnUse" x1="256" x2="256" y1="408" y2="104"><stop offset="0" stop-color="#12bee5"/><stop offset=".5" stop-color="#c071e9"/><stop offset="1" stop-color="#f24f5a"/></linearGradient><path d="m464 104h-416a24.028 24.028 0 0 0 -24 24v256a24.028 24.028 0 0 0 24 24h416a24.028 24.028 0 0 0 24-24v-256a24.028 24.028 0 0 0 -24-24zm8 24v24h-32v-32h24a8.009 8.009 0 0 1 8 8zm-400 72h-32v-32h32zm0 16v32h-32v-32zm0 48v32h-32v-32zm0 48v32h-32v-32zm16-192h336v272h-336zm352 192h32v32h-32zm0-16v-32h32v32zm0-48v-32h32v32zm0-48v-32h32v32zm-392-80h24v32h-32v-24a8.009 8.009 0 0 1 8-8zm-8 264v-24h32v32h-24a8.009 8.009 0 0 1 -8-8zm424 8h-24v-32h32v24a8.009 8.009 0 0 1 -8 8zm-64-256h-288a8 8 0 0 0 -8 8v224a8 8 0 0 0 8 8h288a8 8 0 0 0 8-8v-224a8 8 0 0 0 -8-8zm-8 224h-272v-208h272zm-188.039-25.1a8 8 0 0 0 7.961.068l128-72a8 8 0 0 0 0-13.946l-128-72a8 8 0 0 0 -11.922 6.978v144a8 8 0 0 0 3.961 6.905zm12.039-137.221 103.683 58.321-103.683 58.321z" fill="url(#linear-gradient)"/></svg>